<svg width="247" height="116" viewBox="0 0 247 116" fill="none" xmlns="http://www.w3.org/2000/svg">
<path d="M38.799 26.7462C82.2335 26.7462 220.027 28.7766 220.027 28.7766C238.635 28.8615 245.656 13.143 245.988 2.55285V1C246.004 1.50294 246.004 2.02144 245.988 2.55285V116C245.988 100.162 239.997 77.1015 220.027 77.1015H38.799C-18.1151 77.1015 -4.63552 26.7462 38.799 26.7462Z" fill="white"/>
<path d="M220.027 28.7766C220.027 28.7766 82.2335 26.7462 38.799 26.7462C-4.63552 26.7462 -18.1151 77.1015 38.799 77.1015C95.7131 77.1015 220.027 77.1015 220.027 77.1015C239.997 77.1015 245.988 100.162 245.988 116V1C246.331 11.5258 239.569 28.8657 220.027 28.7766Z" stroke="white"/>
</svg>
