<svg width="737" height="695" viewBox="0 0 737 695" fill="none" xmlns="http://www.w3.org/2000/svg">
<path d="M293.6 401.5L432.6 515.7C439.5 521.4 449.5 521.4 456.4 515.7C465.5 508.2 465.5 494.2 456.4 486.8L306.4 363.6C299 357.5 288.3 357.5 280.8 363.6L130.9 486.7C121.8 494.2 121.8 508.2 130.9 515.6C137.8 521.3 147.8 521.3 154.7 515.6L293.6 401.5Z" stroke="#CECECE" stroke-width="6" stroke-miterlimit="10" stroke-linecap="round" stroke-linejoin="round"/>
<path d="M293.6 401.5L179.4 495.3L189.3 684.4H398L407.8 495.3L293.6 401.5Z" stroke="#CECECE" stroke-width="6" stroke-miterlimit="10" stroke-linecap="round" stroke-linejoin="round"/>
<path d="M293.6 523.2C252.9 523.2 221 550.5 222.2 583.2L226 684.4H361.2L365 583.2C366.2 550.5 334.3 523.2 293.6 523.2Z" stroke="#CECECE" stroke-width="6" stroke-miterlimit="10" stroke-linecap="round" stroke-linejoin="round"/>
<path d="M272.9 490C274.8 494.4 279.9 496.4 284.3 494.6C287.1 493.5 290.3 492.8 293.6 492.8C296.9 492.8 300.1 493.4 302.9 494.6C307.3 496.4 312.4 494.4 314.3 490C315.2 487.9 315.7 485.6 315.7 483.3C315.7 472.7 305.8 464.2 293.5 464.2C281.2 464.2 271.3 472.8 271.3 483.3C271.5 485.7 271.9 487.9 272.9 490Z" stroke="#CECECE" stroke-width="6" stroke-miterlimit="10" stroke-linecap="round" stroke-linejoin="round"/>
<path d="M271.023 460.787C274.411 458.128 275.334 453.647 273.083 450.78C270.833 447.913 266.262 447.745 262.873 450.404C259.485 453.064 258.562 457.544 260.812 460.411C263.063 463.279 267.634 463.447 271.023 460.787Z" stroke="#CECECE" stroke-width="6" stroke-miterlimit="10" stroke-linecap="round" stroke-linejoin="round"/>
<path d="M293.6 453.5C299.233 453.5 303.8 450.411 303.8 446.6C303.8 442.789 299.233 439.7 293.6 439.7C287.967 439.7 283.4 442.789 283.4 446.6C283.4 450.411 287.967 453.5 293.6 453.5Z" stroke="#CECECE" stroke-width="6" stroke-miterlimit="10" stroke-linecap="round" stroke-linejoin="round"/>
<path d="M323.971 463.097C326.222 460.229 325.299 455.749 321.911 453.089C318.522 450.43 313.951 450.598 311.7 453.465C309.45 456.332 310.372 460.813 313.761 463.472C317.149 466.132 321.721 465.964 323.971 463.097Z" stroke="#CECECE" stroke-width="6" stroke-miterlimit="10" stroke-linecap="round" stroke-linejoin="round"/>
<path d="M333.1 525.8C336 508.4 342.9 488.4 351.1 471.7C339.7 490.3 329.4 516.8 325.7 539.2C320 573.3 321.9 604.6 330.6 624.5L335.8 605.7C329 585.8 327.9 557 333.1 525.8Z" fill="#D1D1D1"/>
<path d="M93.3 354.2C64.7 352.2 63.7 385.2 68.7 407.2C70.7 419.2 57.7 426.2 51.8 435.4C49.3 439.4 47 444.1 45.8 450.1C42.5 466 51.9 479.5 53.4 494C53.8 497.6 53.7 501.3 52.8 505.1C51.7 509.2 49.7 513.2 47.7 517.2C31.7 535.2 5.69998 556.2 23.7 580.2C27 584.4 30.6 588.1 34.5 591.4C65.7 618.2 112.7 616.2 148.7 599.2C161.7 592.2 174.7 582.2 177.7 567.2C179.7 551.2 172.7 536.2 162 525.6C158.8 522.1 155.3 518.8 151.7 515.9C149.1 511.9 147.5 508.1 146.7 504.4C144.8 495.2 147.7 486.6 150.5 477.9C151.9 473.6 153.2 469.2 153.9 464.7C157.7 442.1 135.7 428.1 123.7 412.1C118.7 405.1 120.7 396.1 122.7 388.1C126.7 369.1 111.7 353.1 93.8 354.1" fill="#01D392"/>
<path d="M97.8 448.9C93.2 470.6 92.2 491.9 92.8 513.2C93 518.5 106.7 607.2 97.9 646C97.7 651.6 97.7 654.9 97.7 654.9" stroke="#00354C" stroke-width="6" stroke-miterlimit="10" stroke-linecap="round" stroke-linejoin="round"/>
<path d="M112.7 532.8L97.8 554.3" stroke="#00354C" stroke-width="6" stroke-miterlimit="10" stroke-linecap="round" stroke-linejoin="round"/>
<path d="M121.7 687.2H75.7C75.1 687.2 74.6 686.8 74.5 686.2L62.7 636.4H134.7L122.9 686.3C122.8 686.8 122.3 687.2 121.7 687.2Z" fill="#F7BF46"/>
<path opacity="0.68" d="M69.8999 664H127.5" stroke="#F7BF46" stroke-miterlimit="10"/>
<path opacity="0.68" d="M70.8 667.6H126.6" stroke="#F7BF46" stroke-miterlimit="10"/>
<path d="M341.3 673V684" stroke="#00354C" stroke-width="6" stroke-miterlimit="10" stroke-linecap="round" stroke-linejoin="round"/>
<path d="M28.2 506.6C34.1094 506.6 38.9 498.81 38.9 489.2C38.9 479.59 34.1094 471.8 28.2 471.8C22.2906 471.8 17.5 479.59 17.5 489.2C17.5 498.81 22.2906 506.6 28.2 506.6Z" fill="#01D392"/>
<path d="M644.208 577.228L634.309 567.329L624.41 577.228L634.309 587.128L644.208 577.228Z" fill="#01D392"/>
<path d="M573.862 287.464L567.499 281.1L561.135 287.464L567.499 293.828L573.862 287.464Z" fill="#01D392"/>
<path d="M65.0002 156.3V170.6" stroke="#00354C" stroke-width="3" stroke-miterlimit="10" stroke-linecap="round" stroke-linejoin="round"/>
<path d="M65.0002 188.7V203" stroke="#00354C" stroke-width="3" stroke-miterlimit="10" stroke-linecap="round" stroke-linejoin="round"/>
<path d="M44.7002 168L57.1002 175.1" stroke="#00354C" stroke-width="3" stroke-miterlimit="10" stroke-linecap="round" stroke-linejoin="round"/>
<path d="M72.9001 184.2L85.3001 191.3" stroke="#00354C" stroke-width="3" stroke-miterlimit="10" stroke-linecap="round" stroke-linejoin="round"/>
<path d="M44.7002 191.3L57.1002 184.2" stroke="#00354C" stroke-width="3" stroke-miterlimit="10" stroke-linecap="round" stroke-linejoin="round"/>
<path d="M72.9001 175.1L85.3001 168" stroke="#00354C" stroke-width="3" stroke-miterlimit="10" stroke-linecap="round" stroke-linejoin="round"/>
<path d="M691 217.4V227.3" stroke="#00354C" stroke-width="3" stroke-miterlimit="10" stroke-linecap="round" stroke-linejoin="round"/>
<path d="M691 239.9V249.9" stroke="#00354C" stroke-width="3" stroke-miterlimit="10" stroke-linecap="round" stroke-linejoin="round"/>
<path d="M677 225.5L685.6 230.5" stroke="#00354C" stroke-width="3" stroke-miterlimit="10" stroke-linecap="round" stroke-linejoin="round"/>
<path d="M696.5 236.8L705.1 241.7" stroke="#00354C" stroke-width="3" stroke-miterlimit="10" stroke-linecap="round" stroke-linejoin="round"/>
<path d="M677 241.7L685.6 236.8" stroke="#00354C" stroke-width="3" stroke-miterlimit="10" stroke-linecap="round" stroke-linejoin="round"/>
<path d="M696.5 230.5L705.1 225.5" stroke="#00354C" stroke-width="3" stroke-miterlimit="10" stroke-linecap="round" stroke-linejoin="round"/>
<path d="M614.4 379.9C622.74 379.9 629.5 373.139 629.5 364.8C629.5 356.46 622.74 349.7 614.4 349.7C606.061 349.7 599.3 356.46 599.3 364.8C599.3 373.139 606.061 379.9 614.4 379.9Z" fill="#F7BF46"/>
<path d="M614.4 342.8V354.9" stroke="#00354C" stroke-width="3" stroke-miterlimit="10" stroke-linecap="round" stroke-linejoin="round"/>
<path d="M614.4 374.6V386.7" stroke="#00354C" stroke-width="3" stroke-miterlimit="10" stroke-linecap="round" stroke-linejoin="round"/>
<path d="M595.4 353.8L605.9 359.8" stroke="#00354C" stroke-width="3" stroke-miterlimit="10" stroke-linecap="round" stroke-linejoin="round"/>
<path d="M623 369.7L633.5 375.7" stroke="#00354C" stroke-width="3" stroke-miterlimit="10" stroke-linecap="round" stroke-linejoin="round"/>
<path d="M595.4 376.4L605.9 369.7" stroke="#00354C" stroke-width="3" stroke-miterlimit="10" stroke-linecap="round" stroke-linejoin="round"/>
<path d="M623 359.8L633.5 353.8" stroke="#00354C" stroke-width="3" stroke-miterlimit="10" stroke-linecap="round" stroke-linejoin="round"/>
<path d="M342.4 342.8V354.9" stroke="#00354C" stroke-width="3" stroke-miterlimit="10" stroke-linecap="round" stroke-linejoin="round"/>
<path d="M342.4 374.6V386.7" stroke="#00354C" stroke-width="3" stroke-miterlimit="10" stroke-linecap="round" stroke-linejoin="round"/>
<path d="M323.4 353.8L333.9 359.8" stroke="#00354C" stroke-width="3" stroke-miterlimit="10" stroke-linecap="round" stroke-linejoin="round"/>
<path d="M351 369.7L361.5 375.7" stroke="#00354C" stroke-width="3" stroke-miterlimit="10" stroke-linecap="round" stroke-linejoin="round"/>
<path d="M323.4 376.4L333.9 369.7" stroke="#00354C" stroke-width="3" stroke-miterlimit="10" stroke-linecap="round" stroke-linejoin="round"/>
<path d="M351 359.8L361.5 353.8" stroke="#00354C" stroke-width="3" stroke-miterlimit="10" stroke-linecap="round" stroke-linejoin="round"/>
<path d="M388.4 40.9V55.6" stroke="#00354C" stroke-width="4" stroke-miterlimit="10" stroke-linecap="round" stroke-linejoin="round"/>
<path d="M395.7 48.2H381.1" stroke="#00354C" stroke-width="4" stroke-miterlimit="10" stroke-linecap="round" stroke-linejoin="round"/>
<path d="M727.6 555.1V569.8" stroke="#00354C" stroke-width="4" stroke-miterlimit="10" stroke-linecap="round" stroke-linejoin="round"/>
<path d="M734.9 562.5H720.2" stroke="#00354C" stroke-width="4" stroke-miterlimit="10" stroke-linecap="round" stroke-linejoin="round"/>
<path d="M213.1 296V305" stroke="#00354C" stroke-width="4" stroke-miterlimit="10" stroke-linecap="round" stroke-linejoin="round"/>
<path d="M217.6 300.5H208.6" stroke="#00354C" stroke-width="4" stroke-miterlimit="10" stroke-linecap="round" stroke-linejoin="round"/>
<path d="M178.287 373.352L171.216 366.281L164.145 373.352L171.216 380.423L178.287 373.352Z" fill="#F7BF46"/>
<path d="M522.1 455.1H548.4" stroke="#00354C" stroke-width="4" stroke-miterlimit="10" stroke-linecap="round" stroke-linejoin="round"/>
<path d="M557.4 455.1H567.5" stroke="#00354C" stroke-width="4" stroke-miterlimit="10" stroke-linecap="round" stroke-linejoin="round"/>
<path d="M536.7 465.8H566" stroke="#00354C" stroke-width="4" stroke-miterlimit="10" stroke-linecap="round" stroke-linejoin="round"/>
<path d="M538.4 144.4C566.953 144.4 590.1 121.253 590.1 92.7C590.1 64.1469 566.953 41 538.4 41C509.847 41 486.7 64.1469 486.7 92.7C486.7 121.253 509.847 144.4 538.4 144.4Z" fill="#F7BF46"/>
<path d="M590.1 103.4C618.653 103.4 641.8 80.2531 641.8 51.7C641.8 23.1469 618.653 0 590.1 0C561.547 0 538.4 23.1469 538.4 51.7C538.4 80.2531 561.547 103.4 590.1 103.4Z" fill="#F7BF46"/>
<path d="M661.8 117.4C687.868 117.4 709 96.2678 709 70.2C709 44.1322 687.868 23 661.8 23C635.732 23 614.6 44.1322 614.6 70.2C614.6 96.2678 635.732 117.4 661.8 117.4Z" fill="#F7BF46"/>
<path d="M590.1 173.5C618.543 173.5 641.6 150.443 641.6 122C641.6 93.5573 618.543 70.5 590.1 70.5C561.657 70.5 538.6 93.5573 538.6 122C538.6 150.443 561.657 173.5 590.1 173.5Z" fill="#F7BF46"/>
<path d="M644.9 156.3C663.843 156.3 679.2 140.943 679.2 122C679.2 103.057 663.843 87.7 644.9 87.7C625.957 87.7 610.6 103.057 610.6 122C610.6 140.943 625.957 156.3 644.9 156.3Z" fill="#F7BF46"/>
<path d="M536.7 227.6C536.7 235.4 534.7 240.1 526.9 240.1C519.1 240.1 512.7 237.1 512.7 229.3C512.7 221.5 516.8 214.5 524.7 214.5C532.6 214.5 536.7 219.8 536.7 227.6Z" fill="#F7BF46"/>
<path d="M564.8 188.7C564.8 200.5 561.9 207.5 550.1 207.5C538.3 207.5 528.9 203 528.9 191.2C528.9 179.4 538.4 169.9 550.2 169.9C562 169.9 564.8 177 564.8 188.7Z" fill="#F7BF46"/>
<path d="M552.09 545.794C552.289 548.535 552.388 551.276 552.388 554.018C552.388 610.774 507.777 656.87 452.757 656.87C406.561 656.87 367.7 624.379 356.398 580.314C360.463 633.213 403.388 674.943 455.731 674.943C510.751 674.943 555.362 628.948 555.362 572.09C555.461 562.952 554.271 554.221 552.09 545.794Z" fill="white"/>
<path d="M552.09 545.794C552.289 548.535 552.388 551.276 552.388 554.018C552.388 610.774 507.777 656.87 452.757 656.87C406.561 656.87 367.7 624.379 356.398 580.314C360.463 633.213 403.388 674.943 455.731 674.943C510.751 674.943 555.362 628.948 555.362 572.09C555.461 562.952 554.271 554.221 552.09 545.794Z" stroke="#00354C" stroke-width="6" stroke-miterlimit="10" stroke-linecap="round" stroke-linejoin="round"/>
<path d="M377.911 453.399C361.058 445.683 331.714 502.541 324.873 544.778C319.223 579.401 321.106 611.18 329.731 631.385L377.911 453.399Z" fill="white"/>
<path d="M377.911 453.399C361.058 445.683 331.714 502.541 324.873 544.778C319.223 579.401 321.106 611.18 329.731 631.385L377.911 453.399Z" stroke="#00354C" stroke-width="6" stroke-miterlimit="10" stroke-linecap="round" stroke-linejoin="round"/>
<path d="M429.857 453.399C446.71 445.683 476.054 502.541 482.894 544.778C488.545 579.401 486.661 611.18 478.037 631.385L429.857 453.399Z" fill="white"/>
<path d="M475.657 531.173C472.783 513.506 465.942 493.2 457.813 476.244C469.115 495.129 479.325 522.035 482.993 544.778C488.644 579.401 486.761 611.18 478.136 631.385L472.981 612.297C479.722 592.092 480.713 562.851 475.657 531.173Z" fill="#D1D1D1"/>
<path d="M429.857 453.399C446.71 445.683 476.054 502.541 482.894 544.778C488.545 579.401 486.661 611.18 478.037 631.385L429.857 453.399Z" stroke="#00354C" stroke-width="6" stroke-miterlimit="10" stroke-linecap="round" stroke-linejoin="round"/>
<path d="M481.011 639C479.92 622.146 437.094 439.185 425.495 430.047H404.578H383.066C371.467 439.185 328.541 622.044 327.55 639C326.261 660.017 319.52 692 358.48 692H404.578H450.18C489.041 692 482.299 660.017 481.011 639Z" fill="white"/>
<path d="M332.209 613.109C332.209 613.109 329.136 639.914 343.808 649.763C355.308 657.581 365.42 660.728 384.354 664.282C394.565 666.211 405.668 667.023 405.668 667.023L406.858 691.086L326.162 691.695C326.162 691.695 324.774 657.885 326.757 647.732C328.74 637.68 329.731 620.826 332.209 613.109Z" fill="#D1D1D1"/>
<path d="M477.145 613.109C477.145 613.109 480.218 639.914 465.546 649.763C454.046 657.581 443.934 660.728 425 664.282C414.789 666.211 403.686 667.023 403.686 667.023L402.496 691.086L483.192 691.695C483.192 691.695 484.58 657.885 482.597 647.732C480.614 637.68 479.623 620.826 477.145 613.109Z" fill="#D1D1D1"/>
<path d="M439.671 466.903C437.193 466.192 434.814 465.786 432.732 465.786C420.638 465.786 411.021 472.386 411.021 487.615C411.021 502.947 432.732 521.121 444.826 521.121C448.098 521.121 451.171 520.207 453.947 518.583C449.089 499.901 444.132 481.828 439.671 466.903Z" fill="#F7BF46"/>
<path d="M347.972 598.489C361.355 598.489 372.26 584.985 372.26 568.334C372.26 552.393 362.247 539.295 349.558 538.28C344.601 558.18 339.942 577.878 336.175 594.631C339.744 597.067 343.709 598.489 347.972 598.489Z" fill="#F7BF46"/>
<path d="M379.992 434.413C379.992 434.413 387.031 440.2 403.19 440.2C416.276 440.2 427.775 434.413 427.775 434.413L426.784 430.453H380.686L379.992 434.413Z" fill="#D1D1D1"/>
<path d="M481.011 639C479.92 622.146 437.094 439.185 425.495 430.047H404.578H383.066C371.467 439.185 328.541 622.044 327.55 639C326.261 660.017 319.52 692 358.48 692H404.578H450.18C489.041 692 482.299 660.017 481.011 639Z" stroke="#00354C" stroke-width="6" stroke-miterlimit="10" stroke-linecap="round" stroke-linejoin="round"/>
<path d="M478.731 356.944C476.847 337.145 467.33 287.089 456.624 252.061C439.573 196.116 419.547 181.496 407.949 179.973C406.759 179.77 404.181 179.77 404.181 179.77C404.181 179.77 401.703 179.77 400.414 179.973C388.816 181.394 368.89 195.913 351.739 251.959C341.033 286.988 331.615 337.145 329.632 357.045C325.369 401.719 346.287 426.392 373.45 429.945C381.182 430.961 396.449 430.961 404.181 430.961C411.815 430.961 427.082 430.961 434.913 429.945C461.977 426.29 482.994 401.618 478.731 356.944Z" fill="white"/>
<path d="M404.181 397.861C414.529 397.861 422.918 391.088 422.918 382.733C422.918 374.378 414.529 367.604 404.181 367.604C393.833 367.604 385.445 374.378 385.445 382.733C385.445 391.088 393.833 397.861 404.181 397.861Z" fill="#D1D1D1"/>
<path d="M387.031 185.659C387.031 185.659 378.109 220.078 359.471 230.028C364.23 219.063 370.674 205.965 370.674 205.965C370.674 205.965 381.777 187.182 387.031 185.659Z" fill="#D1D1D1"/>
<path d="M407.948 180.074C407.948 180.074 432.137 222.718 452.262 239.065C452.262 239.065 447.702 208.808 443.24 199.67C438.779 190.532 416.97 177.231 407.948 180.074Z" fill="#D1D1D1"/>
<path d="M356.597 343.846C395.557 326.687 418.853 292.877 408.543 268.407C401.306 251.248 379.497 243.227 353.722 245.867C353.127 247.796 352.433 249.827 351.838 251.959C341.925 284.449 333.102 329.834 330.326 352.07C338.852 350.445 347.774 347.806 356.597 343.846Z" fill="#F7BF46"/>
<path d="M459.994 390.348C448.891 406.897 424.603 418.066 398.729 418.066C374.738 418.066 360.364 403.648 351.937 385.677" stroke="#00354C" stroke-width="6" stroke-miterlimit="10" stroke-linecap="round" stroke-linejoin="round"/>
<path d="M404.181 392.48C417.157 392.48 427.676 386.934 427.676 380.093C427.676 373.252 417.157 367.706 404.181 367.706C391.205 367.706 380.686 373.252 380.686 380.093C380.686 386.934 391.205 392.48 404.181 392.48Z" fill="#00354C"/>
<path d="M533.155 685.603C518.087 671.084 489.14 663.876 460.886 666.109C436.697 667.937 418.754 676.364 411.716 687.533C410.526 689.462 412.013 692 414.293 692H528.794C533.255 692 535.931 688.243 533.155 685.603Z" fill="white"/>
<path d="M532.362 685.4C532.065 685.502 531.668 685.603 531.272 685.603H416.771C415.383 685.603 414.194 685.299 413.302 684.69C413.004 684.994 412.608 685.299 412.31 685.603C409.534 688.243 412.211 692 416.771 692H531.272C533.552 692 535.039 689.36 533.849 687.533C533.354 686.72 532.858 686.01 532.362 685.4Z" fill="#D1D1D1"/>
<path d="M533.155 685.603C518.087 671.084 489.14 663.876 460.886 666.109C436.697 667.937 418.754 676.364 411.716 687.533C410.526 689.462 412.013 692 414.293 692H528.794C533.255 692 535.931 688.243 533.155 685.603Z" stroke="#00354C" stroke-width="6" stroke-miterlimit="10" stroke-linecap="round" stroke-linejoin="round"/>
<path d="M471.196 680.628V691.797" stroke="#00354C" stroke-width="6" stroke-miterlimit="10" stroke-linecap="round" stroke-linejoin="round"/>
<path d="M278.478 685.603C293.547 671.084 322.494 663.876 350.748 666.109C374.936 667.937 392.88 676.364 399.918 687.533C401.108 689.462 399.621 692 397.341 692H282.84C278.379 692 275.703 688.243 278.478 685.603Z" fill="white"/>
<path d="M398.53 685.4C398.233 685.502 397.837 685.603 397.44 685.603H282.939C281.552 685.603 280.362 685.299 279.47 684.69C279.172 684.994 278.776 685.299 278.478 685.603C275.703 688.243 278.379 692 282.939 692H397.44C399.72 692 401.207 689.36 400.018 687.533C399.522 686.72 399.026 686.01 398.53 685.4Z" fill="#D1D1D1"/>
<path d="M278.478 685.603C293.547 671.084 322.494 663.876 350.748 666.109C374.936 667.937 392.88 676.364 399.918 687.533C401.108 689.462 399.621 692 397.341 692H282.84C278.379 692 275.703 688.243 278.478 685.603Z" stroke="#00354C" stroke-width="6" stroke-miterlimit="10" stroke-linecap="round" stroke-linejoin="round"/>
<path d="M478.731 356.944C476.847 337.145 467.33 287.089 456.624 252.061C439.573 196.116 419.547 181.496 407.949 179.973C406.759 179.77 404.181 179.77 404.181 179.77C404.181 179.77 401.703 179.77 400.414 179.973C388.816 181.394 368.89 195.913 351.739 251.959C341.033 286.988 331.615 337.145 329.632 357.045C325.369 401.719 346.287 426.392 373.45 429.945C381.182 430.961 396.449 430.961 404.181 430.961C411.815 430.961 427.082 430.961 434.913 429.945C461.977 426.29 482.994 401.618 478.731 356.944Z" stroke="#00354C" stroke-width="6" stroke-miterlimit="10" stroke-linecap="round" stroke-linejoin="round"/>
<path d="M406.164 179.567C406.164 179.567 440.762 172.053 450.279 176.622C460.093 181.293 477.838 216.931 470.502 230.84C459.3 252.162 426.388 174.998 406.164 179.567Z" fill="white"/>
<path d="M406.164 179.567C406.164 179.567 440.762 172.053 450.279 176.622C460.093 181.293 477.838 216.93 470.502 230.84C459.3 252.162 426.388 174.998 406.164 179.567Z" stroke="#00354C" stroke-width="6" stroke-miterlimit="10" stroke-linecap="round" stroke-linejoin="round"/>
<path d="M341.231 185.963L389.113 184.542C389.113 184.542 344.701 233.48 324.18 244.04C303.659 254.599 324.675 185.862 341.231 185.963Z" fill="white"/>
<path d="M341.231 185.963L389.113 184.542C389.113 184.542 344.701 233.48 324.18 244.04C303.659 254.599 324.675 185.862 341.231 185.963Z" stroke="#00354C" stroke-width="6" stroke-miterlimit="10" stroke-linecap="round" stroke-linejoin="round"/>
<path d="M385.247 295.821C387.984 295.821 390.203 292.866 390.203 289.222C390.203 285.577 387.984 282.622 385.247 282.622C382.509 282.622 380.29 285.577 380.29 289.222C380.29 292.866 382.509 295.821 385.247 295.821Z" fill="#00354C"/>
<path d="M427.081 295.821C429.819 295.821 432.038 292.866 432.038 289.222C432.038 285.577 429.819 282.622 427.081 282.622C424.344 282.622 422.125 285.577 422.125 289.222C422.125 292.866 424.344 295.821 427.081 295.821Z" fill="#00354C"/>
<path d="M503.713 248.101C503.713 253.787 502.325 257.137 496.773 257.137C491.222 257.137 486.76 255.005 486.76 249.319C486.76 243.634 491.222 239.065 496.773 239.065C502.325 239.065 503.713 242.415 503.713 248.101Z" fill="#F7BF46"/>
<path d="M642.7 88C644.2 86.2 645.1 83.7 644.8 81C644.3 76.8 638.6 74.7 636.2 74.2C633 73.6 626.3 76.5 626.3 82C626.3 83.3 625.3 84.4 624 84.4H578.5C577.2 84.4 576.2 83.3 576.2 82.1C576.2 80.9 576 79.6 575.4 78.3C574.1 75.3 570.8 74.9 567.9 74.6C562.9 74 557.6 76.5 557.6 82C557.6 84.3 558.4 86.3 559.8 87.9C560.7 89 560.7 90.6 559.8 91.7C558.3 93.5 557.4 96 557.7 98.7C558.2 102.9 562.2 104.7 566 105.1C571 105.7 576.2 103.1 576.2 97.7C576.2 96.4 577.2 95.3 578.5 95.3H624C625.3 95.3 626.3 96.4 626.3 97.6C626.3 98.8 626.5 100.1 627.1 101.4C628.4 104.4 633.1 105.1 634.9 105.5C638.1 106.1 644.8 103.2 644.8 97.7C644.8 95.4 644 93.4 642.6 91.8C641.8 90.7 641.8 89.1 642.7 88Z" fill="#F6F6F4"/>
</svg>
